<mxfile host="app.diagrams.net" modified="2024-05-14T01:01:20.513Z" agent="Mozilla/5.0 (Windows NT 10.0; Win64; x64) AppleWebKit/537.36 (KHTML, like Gecko) Chrome/124.0.0.0 Safari/537.36" version="24.4.0" etag="r5jaokUYxq3es11EYI-X" type="github">
  <diagram name="Page-1" id="fB0MiRdMEO6rPZf0P8Qw">
    <mxGraphModel>
      <root>
        <mxCell id="0" />
        <mxCell id="1" parent="0" />
      </root>
    </mxGraphModel>
  </diagram>
</mxfile>
